<svg width="206" height="56" viewBox="0 0 206 56" fill="none" xmlns="http://www.w3.org/2000/svg">
<path d="M18 10C16.5964 10 15.2303 10.1606 13.9197 10.4652C7.25502 12.0094 2.00937 17.255 0.465194 23.919C0.160642 25.2303 0 26.5964 0 28C0 37.9411 8.0589 46 18 46C19.4036 46 20.7697 45.8394 22.081 45.5348C28.745 43.9906 33.9906 38.7456 35.5355 32.0823C35.84 30.7711 36.0007 29.4043 36.0007 28C36.0007 18.0589 27.9411 10 18 10ZM18 39.2724C16.6714 39.2724 15.3969 39.0428 14.2135 38.6205C11.0341 37.4866 8.51406 34.9665 7.38019 31.7871C6.95783 30.6037 6.72825 29.3286 6.72825 28C6.72825 21.7744 11.7744 16.7276 18 16.7276C19.3286 16.7276 20.6031 16.9572 21.7865 17.3795C24.9659 18.5134 27.4866 21.0335 28.6205 24.2129C29.0428 25.3963 29.2724 26.6714 29.2724 28C29.2724 34.2256 24.2256 39.2724 18 39.2724Z" fill="url(#paint0_linear_5004_421)"/>
<path d="M18 20.7349C13.9879 20.7349 10.7349 23.9879 10.7349 27.9999C10.7349 32.012 13.9879 35.265 18 35.265C22.012 35.265 25.265 32.012 25.265 27.9999C25.265 23.9879 22.0127 20.7349 18 20.7349ZM18 32.3928C15.5743 32.3928 13.6071 30.4263 13.6071 27.9999C13.6071 25.5736 15.5743 23.607 18 23.607C20.4257 23.607 22.3929 25.5736 22.3929 27.9999C22.3929 30.4263 20.4264 32.3928 18 32.3928Z" fill="#FEFCFE"/>
<path d="M21.7865 17.3797C20.6031 16.9573 19.3286 16.7277 18 16.7277C11.7744 16.7277 6.72823 21.7746 6.72823 28.0001C6.72823 29.3288 6.95782 30.6039 7.38017 31.7873C5.94175 31.2438 4.59302 30.393 3.43506 29.2351C1.91565 27.7157 0.925688 25.8676 0.465179 23.9191C2.00936 17.2552 7.25501 12.0095 13.9197 10.4653C15.8675 10.9258 17.7155 11.9158 19.2349 13.4352C20.3922 14.5925 21.243 15.9412 21.7865 17.3797Z" fill="url(#paint1_linear_5004_421)"/>
<path d="M35.5355 32.0824C33.9906 38.7457 28.745 43.9907 22.081 45.5348C20.1332 45.0743 18.2851 44.0844 16.7657 42.565C15.6078 41.407 14.757 40.0583 14.2135 38.6205C15.3969 39.0429 16.6713 39.2725 18 39.2725C24.2256 39.2725 29.2724 34.2256 29.2724 28C29.2724 26.6714 29.0428 25.3963 28.6205 24.2129C30.0582 24.7564 31.4069 25.6071 32.5649 26.7651C34.0843 28.2845 35.075 30.1339 35.5355 32.0824Z" fill="url(#paint2_linear_5004_421)"/>
<path d="M9.09638 40.6713C11.1769 40.6713 12.8634 38.9848 12.8634 36.9043C12.8634 34.8238 11.1769 33.1372 9.09638 33.1372C7.01588 33.1372 5.32931 34.8238 5.32931 36.9043C5.32931 38.9848 7.01588 40.6713 9.09638 40.6713Z" fill="url(#paint3_linear_5004_421)"/>
<path d="M26.9371 22.8305C29.0176 22.8305 30.7041 21.1439 30.7041 19.0635C30.7041 16.983 29.0176 15.2964 26.9371 15.2964C24.8566 15.2964 23.17 16.983 23.17 19.0635C23.17 21.1439 24.8566 22.8305 26.9371 22.8305Z" fill="url(#paint4_linear_5004_421)"/>
<path d="M53.4 42C51.8267 42 50.44 41.6533 49.24 40.96C48.0667 40.24 47.1467 39.28 46.48 38.08C45.84 36.88 45.52 35.5467 45.52 34.08V14H50.32V34.68C50.32 35.5333 50.6 36.2667 51.16 36.88C51.7467 37.4933 52.4933 37.8 53.4 37.8H60.84V42H53.4ZM64.5881 42V21.6H69.1881V42H64.5881ZM66.8681 18.76C66.0681 18.76 65.3748 18.4667 64.7881 17.88C64.2015 17.2933 63.9081 16.6 63.9081 15.8C63.9081 15 64.2015 14.3067 64.7881 13.72C65.3748 13.1333 66.0681 12.84 66.8681 12.84C67.6948 12.84 68.3881 13.1333 68.9481 13.72C69.5348 14.3067 69.8281 15 69.8281 15.8C69.8281 16.6 69.5348 17.2933 68.9481 17.88C68.3881 18.4667 67.6948 18.76 66.8681 18.76ZM75.9853 42V25.52H72.4253V21.6H75.9853V18.6C75.9853 16.7867 76.492 15.3733 77.5053 14.36C78.5453 13.32 79.972 12.8 81.7853 12.8H87.2253V16.72H82.6253C82.012 16.72 81.5186 16.9067 81.1453 17.28C80.772 17.6533 80.5853 18.16 80.5853 18.8V21.6H86.3853V25.52H80.5853V42H75.9853ZM99.4784 42C97.1851 42 95.1718 41.5733 93.4384 40.72C91.7318 39.84 90.3984 38.64 89.4384 37.12C88.4784 35.5733 87.9984 33.8 87.9984 31.8C87.9984 29.6933 88.4251 27.84 89.2784 26.24C90.1318 24.64 91.3051 23.3867 92.7984 22.48C94.2918 21.5733 96.0118 21.12 97.9584 21.12C100.145 21.12 101.945 21.5867 103.358 22.52C104.772 23.4533 105.812 24.7067 106.478 26.28C107.172 27.8533 107.518 29.6133 107.518 31.56C107.518 31.8267 107.505 32.1333 107.478 32.48C107.452 32.8267 107.412 33.0933 107.358 33.28H92.8784C93.0384 34.3467 93.4251 35.24 94.0384 35.96C94.6518 36.6533 95.4251 37.1867 96.3584 37.56C97.2918 37.9067 98.3318 38.08 99.4784 38.08H104.958V42H99.4784ZM92.8384 30.16H102.918C102.892 29.6533 102.812 29.1467 102.678 28.64C102.572 28.1333 102.385 27.6533 102.118 27.2C101.878 26.7467 101.558 26.36 101.158 26.04C100.785 25.6933 100.332 25.4267 99.7984 25.24C99.2651 25.0267 98.6518 24.92 97.9584 24.92C97.1584 24.92 96.4518 25.08 95.8384 25.4C95.2251 25.6933 94.7051 26.0933 94.2784 26.6C93.8518 27.08 93.5184 27.64 93.2784 28.28C93.0651 28.8933 92.9184 29.52 92.8384 30.16ZM111.575 42V21.72C111.575 20.2533 111.921 18.9467 112.615 17.8C113.308 16.6267 114.228 15.7067 115.375 15.04C116.548 14.3467 117.868 14 119.335 14H129.335V18.2H119.855C118.841 18.2 118.001 18.5467 117.335 19.24C116.695 19.9067 116.375 20.7333 116.375 21.72V26.84H127.935V31.04H116.375V42H111.575ZM133.494 42V12.8H138.094V42H133.494ZM153.332 42.48C151.225 42.48 149.358 42.0133 147.732 41.08C146.105 40.12 144.812 38.84 143.852 37.24C142.918 35.6133 142.452 33.8 142.452 31.8C142.452 29.8 142.918 28 143.852 26.4C144.812 24.7733 146.105 23.4933 147.732 22.56C149.358 21.6 151.225 21.12 153.332 21.12C155.412 21.12 157.265 21.6 158.892 22.56C160.518 23.4933 161.798 24.76 162.732 26.36C163.692 27.96 164.172 29.7733 164.172 31.8C164.172 33.8 163.692 35.6133 162.732 37.24C161.798 38.84 160.518 40.12 158.892 41.08C157.265 42.0133 155.412 42.48 153.332 42.48ZM153.332 38.56C154.585 38.56 155.678 38.2667 156.612 37.68C157.545 37.0667 158.265 36.2533 158.772 35.24C159.278 34.2267 159.532 33.08 159.532 31.8C159.532 30.5467 159.278 29.4133 158.772 28.4C158.265 27.36 157.545 26.5467 156.612 25.96C155.678 25.3467 154.585 25.04 153.332 25.04C152.052 25.04 150.945 25.3467 150.012 25.96C149.105 26.5467 148.385 27.3467 147.852 28.36C147.345 29.3733 147.092 30.52 147.092 31.8C147.092 33.0533 147.345 34.2 147.852 35.24C148.385 36.2533 149.105 37.0667 150.012 37.68C150.945 38.2667 152.052 38.56 153.332 38.56ZM175.733 42.48C174.4 42.48 173.187 42.2267 172.093 41.72C171 41.1867 170.133 40.3867 169.493 39.32C168.853 38.2267 168.533 36.84 168.533 35.16V21.6H173.133V35.88C173.133 36.4133 173.253 36.8933 173.493 37.32C173.733 37.72 174.04 38.0267 174.413 38.24C174.813 38.4533 175.253 38.56 175.733 38.56C176.187 38.56 176.613 38.4533 177.013 38.24C177.413 38.0267 177.733 37.72 177.973 37.32C178.213 36.8933 178.333 36.4133 178.333 35.88V28.36C178.333 26.7867 178.627 25.4667 179.213 24.4C179.827 23.3067 180.667 22.4933 181.733 21.96C182.827 21.4 184.067 21.12 185.453 21.12C186.867 21.12 188.107 21.4 189.173 21.96C190.24 22.4933 191.08 23.3067 191.693 24.4C192.307 25.4667 192.613 26.7867 192.613 28.36V35.88C192.613 36.4133 192.733 36.8933 192.973 37.32C193.213 37.72 193.533 38.0267 193.933 38.24C194.333 38.4533 194.773 38.56 195.253 38.56C195.707 38.56 196.12 38.4533 196.493 38.24C196.893 38.0267 197.213 37.72 197.453 37.32C197.693 36.8933 197.813 36.4133 197.813 35.88V21.6H202.413V35.16C202.413 36.84 202.093 38.2267 201.453 39.32C200.813 40.3867 199.947 41.1867 198.853 41.72C197.76 42.2267 196.56 42.48 195.253 42.48C193.947 42.48 192.747 42.2267 191.653 41.72C190.56 41.1867 189.68 40.3867 189.013 39.32C188.347 38.2267 188.013 36.84 188.013 35.16V27.72C188.013 27.1333 187.893 26.6533 187.653 26.28C187.44 25.88 187.133 25.5733 186.733 25.36C186.36 25.1467 185.933 25.04 185.453 25.04C185.027 25.04 184.613 25.1467 184.213 25.36C183.813 25.5733 183.493 25.88 183.253 26.28C183.013 26.6533 182.893 27.1333 182.893 27.72V35.16C182.893 36.84 182.56 38.2267 181.893 39.32C181.253 40.3867 180.387 41.1867 179.293 41.72C178.227 42.2267 177.04 42.48 175.733 42.48Z" fill="#FEFCFE"/>
<defs>
<linearGradient id="paint0_linear_5004_421" x1="30.5556" y1="16.1359" x2="5.83534" y2="39.4953" gradientUnits="userSpaceOnUse">
<stop stop-color="#F38856"/>
<stop offset="0.23" stop-color="#F0625C"/>
<stop offset="1" stop-color="#5C3DAB"/>
</linearGradient>
<linearGradient id="paint1_linear_5004_421" x1="16.8608" y1="13.0517" x2="2.79985" y2="27.037" gradientUnits="userSpaceOnUse">
<stop stop-color="#F67986"/>
<stop offset="1" stop-color="#8951BA"/>
</linearGradient>
<linearGradient id="paint2_linear_5004_421" x1="32.9424" y1="29.2196" x2="18.8815" y2="43.2055" gradientUnits="userSpaceOnUse">
<stop stop-color="#F67986"/>
<stop offset="1" stop-color="#8951BA"/>
</linearGradient>
<linearGradient id="paint3_linear_5004_421" x1="11.8467" y1="34.3306" x2="6.34537" y2="39.4779" gradientUnits="userSpaceOnUse">
<stop stop-color="#A267B9"/>
<stop offset="1" stop-color="#704BB4"/>
</linearGradient>
<linearGradient id="paint4_linear_5004_421" x1="29.2269" y1="16.9202" x2="25.4712" y2="20.4349" gradientUnits="userSpaceOnUse">
<stop stop-color="#F7A8A5"/>
<stop offset="0.97" stop-color="#D074C4"/>
<stop offset="1" stop-color="#CF76A9"/>
</linearGradient>
</defs>
</svg>
